<svg xmlns="http://www.w3.org/2000/svg" width="64" height="64" viewBox="0 0 511.999 511.999"><path xmlns="http://www.w3.org/2000/svg" d="M414.365 61.504H97.634c-22.285 0-40.35 18.065-40.35 40.35v369.795c0 22.285 18.065 40.35 40.35 40.35h316.73c22.285 0 40.35-18.065 40.35-40.35V101.855c.001-22.285-18.065-40.351-40.349-40.351z" fill="#f16334" data-original="#ff8c57"/><path xmlns="http://www.w3.org/2000/svg" d="M125.818 61.505v42.7c0 24.57 19.99 44.558 44.559 44.558h171.245c24.57 0 44.559-19.989 44.559-44.558v-42.7H125.818z" fill="#e9511f" data-original="#ec6a34"/><path xmlns="http://www.w3.org/2000/svg" d="M385.973 104.204H126.027c-13.328 0-24.133 10.805-24.133 24.133V438.43c0 13.328 10.805 24.133 24.133 24.133h259.946c13.328 0 24.133-10.805 24.133-24.133V128.337c0-13.329-10.805-24.133-24.133-24.133z" fill="#efedee" data-original="#efedee"/><path xmlns="http://www.w3.org/2000/svg" d="M385.973 104.204H126.027c-.07 0-.139.004-.209.005.003 24.568 19.991 44.554 44.559 44.554h171.245c24.568 0 44.556-19.987 44.559-44.554-.069 0-.138-.005-.208-.005z" fill="#d4d2d3" data-original="#d4d2d3"/><path xmlns="http://www.w3.org/2000/svg" d="M341.622 32.95H288.95C288.95 14.752 274.198 0 256 0s-32.95 14.752-32.95 32.95h-52.672c-10.385 0-18.805 8.419-18.805 18.805v52.45c0 10.385 8.42 18.804 18.805 18.804h171.244c10.385 0 18.805-8.419 18.805-18.804v-52.45c-.001-10.386-8.419-18.805-18.805-18.805zM256 40.041c-4.883 0-8.841-3.958-8.841-8.841s3.958-8.841 8.841-8.841c4.883 0 8.841 3.958 8.841 8.841s-3.958 8.841-8.841 8.841z" fill="#bab8b9" data-original="#bab8b9"/><path d="M190.698 88.872a7.726 7.726 0 01-7.726-7.726V69.327a7.726 7.726 0 1115.452 0v11.818a7.727 7.727 0 01-7.726 7.727zm130.604 0a7.726 7.726 0 01-7.726-7.726V69.327a7.726 7.726 0 1115.452 0v11.818a7.726 7.726 0 01-7.726 7.727zM256 95.18c-8.511 0-16.506-3.562-21.935-9.772a7.726 7.726 0 1111.634-10.17c2.494 2.854 6.248 4.49 10.301 4.49s7.807-1.636 10.301-4.49c2.808-3.213 7.689-3.541 10.902-.732s3.541 7.689.732 10.902c-5.429 6.211-13.424 9.772-21.935 9.772zm-76.187 117.399h-17.278c-10.305 0-18.689-8.384-18.689-18.689v-17.277c0-10.305 8.384-18.689 18.689-18.689h17.278c10.305 0 18.689 8.384 18.689 18.689v17.277c-.001 10.305-8.384 18.689-18.689 18.689zm-17.278-39.203a3.24 3.24 0 00-3.236 3.236v17.277a3.24 3.24 0 003.236 3.236h17.278a3.24 3.24 0 003.236-3.236v-17.277a3.24 3.24 0 00-3.236-3.236h-17.278zm197.892 19.602H256a7.726 7.726 0 110-15.452h104.427a7.726 7.726 0 110 15.452zM179.813 283.21h-17.278c-10.305 0-18.689-8.384-18.689-18.689v-17.277c0-10.305 8.384-18.689 18.689-18.689h17.278c10.305 0 18.689 8.384 18.689 18.689v17.277c-.001 10.306-8.384 18.689-18.689 18.689zm-17.278-39.201a3.24 3.24 0 00-3.236 3.236v17.277a3.24 3.24 0 003.236 3.236h17.278a3.24 3.24 0 003.236-3.236v-17.277a3.24 3.24 0 00-3.236-3.236h-17.278zm197.892 19.6H256a7.726 7.726 0 110-15.452h104.427a7.726 7.726 0 110 15.452zm-180.614 90.233h-17.278c-10.305 0-18.689-8.384-18.689-18.689v-17.277c0-10.305 8.384-18.689 18.689-18.689h17.278c10.305 0 18.689 8.384 18.689 18.689v17.277c-.001 10.306-8.384 18.689-18.689 18.689zm-17.278-39.202a3.24 3.24 0 00-3.236 3.236v17.277a3.24 3.24 0 003.236 3.236h17.278a3.24 3.24 0 003.236-3.236v-17.277a3.24 3.24 0 00-3.236-3.236h-17.278zm197.892 19.601H256a7.726 7.726 0 110-15.452h104.427a7.726 7.726 0 110 15.452zm-180.614 90.233h-17.278c-10.305 0-18.689-8.384-18.689-18.689v-17.278c0-10.305 8.384-18.689 18.689-18.689h17.278c10.305 0 18.689 8.384 18.689 18.689v17.278c-.001 10.305-8.384 18.689-18.689 18.689zm-17.278-39.202a3.24 3.24 0 00-3.236 3.236v17.278a3.24 3.24 0 003.236 3.236h17.278a3.24 3.24 0 003.236-3.236v-17.278a3.24 3.24 0 00-3.236-3.236h-17.278zm197.892 19.6H256a7.726 7.726 0 110-15.452h104.427a7.726 7.726 0 110 15.452z" fill="#43464b" data-original="#3a484a" xmlns="http://www.w3.org/2000/svg"/></svg>