<svg xmlns="http://www.w3.org/2000/svg" width="60" height="60" viewBox="0 0 512.101 512.101"><g xmlns="http://www.w3.org/2000/svg"><circle cx="256.05" cy="256.05" fill="#57595e" r="255.707" data-original="#4a696f"/><path d="M436.862 436.862a254.882 254.882 0 000-361.624C388.377 26.752 324.163.05 256.05.05v512c68.113 0 132.327-26.702 180.812-75.188z" fill="#43464b" data-original="#384949"/><path d="M344.05 209.05h-73v-97a15 15 0 00-11.554-14.599 14.995 14.995 0 00-16.863 7.891l-88 176c-4.977 9.954 2.269 21.708 13.417 21.708h73v97c0 8.305 6.741 15.001 15.003 15.001a15.004 15.004 0 0013.413-8.293l88-176c4.978-9.954-2.269-21.708-13.416-21.708z" fill="#fed843" data-original="#fed843"/><path d="M344.05 209.05h-73v-97c0-8.143-6.559-14.988-15-14.991 0 325.09.103 317.993.003 317.993a15.004 15.004 0 0013.413-8.293l88-176c4.978-9.955-2.269-21.709-13.416-21.709z" fill="#fabe2c" data-original="#fabe2c"/></g></svg>